<svg fill="none" viewBox="0 0 24 24" xmlns="http://www.w3.org/2000/svg" class="RedHeaderProfileItem_RedHeaderProfileItem__icon__1ruq2"><path d="M4.74 7.232c-2.287 3.991-4.426 8.702-.777 12.67 1.639 1.782 4.287 2.969 7.029 3.071 6.843.256 11.434-4.79 11.89-9.985.221-2.528.224-5.286-1.555-7.477-1.248-1.537-3.137-2.074-5.059-2.819-2.345-.91-8.14-1.195-9.902.86-1.648 1.924-4.832 4.844-3.577 7.419m5.68-2.754.14.273m0 0c.11.217.216.415.317.59m-.318-.59c.54-1.241 1.892-2.583 2.213-1.575.056.176.088.387.098.61m-2.31.965c-.275.631-.338 1.237.053 1.493m.264-.904c.58 1.001 1.032 1.24 1.744-.152.184-.36.27-.91.249-1.401M8.926 9.079c.26-.762.723-1.621 1.913-1.572a.208.208 0 0 1 .08.019M8.926 9.079c-.078.23-.138.452-.193.636a5.118 5.118 0 0 0-.07.268m2.256-2.457c.541.25.04 2.879-1.941 2.57a.789.789 0 0 1-.316-.113m0 0c-.138.583-.31 1.67.485.837m6.835-4.251-.03.14m0 0c-.074.356-.129.626-.168.825m.168-.826c.031-.028.064-.055.097-.08.768-.594.518 2.989.472 3.163-.41 1.532-2.096 1.992-1.685.03.182-.872.183-1.772.674-2.564.05-.08.092-.138.127-.176m.315-.373c-.12.11-.225.235-.315.373m.147.453c-.163.837-.05.425 0 0Zm0 0c.038-.322.038-.653-.147-.453m0 0c-.542.833-.565 2.116-.565 2.915m-9.423 2.951c.774 2.516 3.792 7.465 7.308 6.175 1.002-.367 5.542-5.249 4.355-5.848" stroke="#FFB800" stroke-linecap="round" stroke-width="1.825"></path></svg>